<svg id="visual" viewBox="0 0 900 600" width="900" height="600" xmlns="http://www.w3.org/2000/svg" xmlns:xlink="http://www.w3.org/1999/xlink" version="1.1"><rect x="0" y="0" width="900" height="600" fill="#931C1C"></rect><path d="M0 518L129 507L257 525L386 537L514 510L643 500L771 539L900 533L900 601L771 601L643 601L514 601L386 601L257 601L129 601L0 601Z" fill="#f5730a"></path><path d="M0 530L129 521L257 522L386 536L514 529L643 529L771 517L900 524L900 601L771 601L643 601L514 601L386 601L257 601L129 601L0 601Z" fill="#da5b09"></path><path d="M0 555L129 542L257 555L386 538L514 538L643 560L771 547L900 538L900 601L771 601L643 601L514 601L386 601L257 601L129 601L0 601Z" fill="#be4407"></path><path d="M0 574L129 571L257 559L386 560L514 553L643 559L771 565L900 566L900 601L771 601L643 601L514 601L386 601L257 601L129 601L0 601Z" fill="#a32d04"></path><path d="M0 586L129 583L257 569L386 576L514 586L643 580L771 571L900 578L900 601L771 601L643 601L514 601L386 601L257 601L129 601L0 601Z" fill="#871400"></path></svg>