<svg id="visual" viewBox="0 0 900 600" width="900" height="600" xmlns="http://www.w3.org/2000/svg" xmlns:xlink="http://www.w3.org/1999/xlink" version="1.1"><g stroke-width="1" stroke-linejoin="bevel"><path d="M433 332L304 306L374 370Z" fill="#bec7ce" stroke="#bec7ce"></path><path d="M433 332L434 183L304 306Z" fill="#dadada" stroke="#dadada"></path><path d="M304 306L291 385L374 370Z" fill="#d2d4d6" stroke="#d2d4d6"></path><path d="M474 271L434 183L433 332Z" fill="#bec7ce" stroke="#bec7ce"></path><path d="M474 271L482 211L434 183Z" fill="#bac4cc" stroke="#bac4cc"></path><path d="M434 183L294 178L304 306Z" fill="#bac4cc" stroke="#bac4cc"></path><path d="M304 306L216 380L291 385Z" fill="#ced2d5" stroke="#ced2d5"></path><path d="M374 370L519 360L433 332Z" fill="#dadada" stroke="#dadada"></path><path d="M433 332L519 360L474 271Z" fill="#d2d4d6" stroke="#d2d4d6"></path><path d="M474 271L600 291L482 211Z" fill="#bac4cc" stroke="#bac4cc"></path><path d="M411 510L519 360L374 370Z" fill="#b5c2cb" stroke="#b5c2cb"></path><path d="M473 102L371 133L434 183Z" fill="#c6ccd1" stroke="#c6ccd1"></path><path d="M434 183L371 133L294 178Z" fill="#bec7ce" stroke="#bec7ce"></path><path d="M160 266L216 380L304 306Z" fill="#bec7ce" stroke="#bec7ce"></path><path d="M216 380L321 486L291 385Z" fill="#bac4cc" stroke="#bac4cc"></path><path d="M291 385L321 486L374 370Z" fill="#dadada" stroke="#dadada"></path><path d="M128 234L193 226L174 128Z" fill="#d6d7d8" stroke="#d6d7d8"></path><path d="M294 178L193 226L304 306Z" fill="#b5c2cb" stroke="#b5c2cb"></path><path d="M321 486L411 510L374 370Z" fill="#dadada" stroke="#dadada"></path><path d="M193 226L160 266L304 306Z" fill="#c2c9cf" stroke="#c2c9cf"></path><path d="M585 175L473 102L482 211Z" fill="#d6d7d8" stroke="#d6d7d8"></path><path d="M482 211L473 102L434 183Z" fill="#ced2d5" stroke="#ced2d5"></path><path d="M563 434L600 291L519 360Z" fill="#d6d7d8" stroke="#d6d7d8"></path><path d="M519 360L600 291L474 271Z" fill="#bec7ce" stroke="#bec7ce"></path><path d="M469 529L563 434L519 360Z" fill="#dadada" stroke="#dadada"></path><path d="M434 600L469 529L411 510Z" fill="#d2d4d6" stroke="#d2d4d6"></path><path d="M411 510L469 529L519 360Z" fill="#b1bfc9" stroke="#b1bfc9"></path><path d="M600 291L585 175L482 211Z" fill="#dadada" stroke="#dadada"></path><path d="M128 234L122 281L160 266Z" fill="#bac4cc" stroke="#bac4cc"></path><path d="M160 266L134 392L216 380Z" fill="#d2d4d6" stroke="#d2d4d6"></path><path d="M174 128L193 226L294 178Z" fill="#c6ccd1" stroke="#c6ccd1"></path><path d="M193 226L128 234L160 266Z" fill="#bac4cc" stroke="#bac4cc"></path><path d="M122 281L134 392L160 266Z" fill="#d2d4d6" stroke="#d2d4d6"></path><path d="M216 380L173 477L321 486Z" fill="#bec7ce" stroke="#bec7ce"></path><path d="M433 0L262 70L371 133Z" fill="#b5c2cb" stroke="#b5c2cb"></path><path d="M371 133L262 70L294 178Z" fill="#c6ccd1" stroke="#c6ccd1"></path><path d="M262 70L174 128L294 178Z" fill="#b5c2cb" stroke="#b5c2cb"></path><path d="M134 392L173 477L216 380Z" fill="#b5c2cb" stroke="#b5c2cb"></path><path d="M282 600L434 600L411 510Z" fill="#b1bfc9" stroke="#b1bfc9"></path><path d="M585 175L608 136L473 102Z" fill="#cacfd3" stroke="#cacfd3"></path><path d="M700 218L608 136L585 175Z" fill="#dadada" stroke="#dadada"></path><path d="M469 529L593 501L563 434Z" fill="#b1bfc9" stroke="#b1bfc9"></path><path d="M705 393L674 297L600 291Z" fill="#bec7ce" stroke="#bec7ce"></path><path d="M600 291L700 218L585 175Z" fill="#d2d4d6" stroke="#d2d4d6"></path><path d="M705 393L600 291L563 434Z" fill="#ced2d5" stroke="#ced2d5"></path><path d="M282 600L411 510L321 486Z" fill="#b5c2cb" stroke="#b5c2cb"></path><path d="M469 529L528 600L593 501Z" fill="#d6d7d8" stroke="#d6d7d8"></path><path d="M497 0L433 0L473 102Z" fill="#d2d4d6" stroke="#d2d4d6"></path><path d="M473 102L433 0L371 133Z" fill="#ced2d5" stroke="#ced2d5"></path><path d="M173 477L282 600L321 486Z" fill="#bec7ce" stroke="#bec7ce"></path><path d="M433 0L263 0L262 70Z" fill="#b5c2cb" stroke="#b5c2cb"></path><path d="M262 70L218 0L174 128Z" fill="#bac4cc" stroke="#bac4cc"></path><path d="M579 0L497 0L473 102Z" fill="#c6ccd1" stroke="#c6ccd1"></path><path d="M0 375L100 495L134 392Z" fill="#c6ccd1" stroke="#c6ccd1"></path><path d="M134 392L100 495L173 477Z" fill="#bac4cc" stroke="#bac4cc"></path><path d="M173 477L205 600L282 600Z" fill="#d2d4d6" stroke="#d2d4d6"></path><path d="M434 600L528 600L469 529Z" fill="#dadada" stroke="#dadada"></path><path d="M674 297L700 218L600 291Z" fill="#d6d7d8" stroke="#d6d7d8"></path><path d="M608 136L579 0L473 102Z" fill="#ced2d5" stroke="#ced2d5"></path><path d="M263 0L218 0L262 70Z" fill="#c2c9cf" stroke="#c2c9cf"></path><path d="M0 131L0 197L128 234Z" fill="#cacfd3" stroke="#cacfd3"></path><path d="M100 495L205 600L173 477Z" fill="#b5c2cb" stroke="#b5c2cb"></path><path d="M671 502L705 393L563 434Z" fill="#bac4cc" stroke="#bac4cc"></path><path d="M674 297L783 336L700 218Z" fill="#dadada" stroke="#dadada"></path><path d="M671 502L563 434L593 501Z" fill="#bec7ce" stroke="#bec7ce"></path><path d="M218 0L122 62L174 128Z" fill="#c2c9cf" stroke="#c2c9cf"></path><path d="M0 197L0 328L122 281Z" fill="#bac4cc" stroke="#bac4cc"></path><path d="M122 281L0 328L134 392Z" fill="#bec7ce" stroke="#bec7ce"></path><path d="M611 600L671 502L593 501Z" fill="#c6ccd1" stroke="#c6ccd1"></path><path d="M722 100L579 0L608 136Z" fill="#b1bfc9" stroke="#b1bfc9"></path><path d="M0 197L122 281L128 234Z" fill="#c6ccd1" stroke="#c6ccd1"></path><path d="M0 328L0 375L134 392Z" fill="#d6d7d8" stroke="#d6d7d8"></path><path d="M528 600L611 600L593 501Z" fill="#ced2d5" stroke="#ced2d5"></path><path d="M218 0L134 0L122 62Z" fill="#b5c2cb" stroke="#b5c2cb"></path><path d="M0 131L128 234L174 128Z" fill="#b1bfc9" stroke="#b1bfc9"></path><path d="M0 131L174 128L122 62Z" fill="#bec7ce" stroke="#bec7ce"></path><path d="M700 218L722 100L608 136Z" fill="#b1bfc9" stroke="#b1bfc9"></path><path d="M784 203L722 100L700 218Z" fill="#dadada" stroke="#dadada"></path><path d="M0 0L0 131L122 62Z" fill="#dadada" stroke="#dadada"></path><path d="M0 375L0 476L100 495Z" fill="#d2d4d6" stroke="#d2d4d6"></path><path d="M100 495L67 600L205 600Z" fill="#ced2d5" stroke="#ced2d5"></path><path d="M793 535L776 381L705 393Z" fill="#b5c2cb" stroke="#b5c2cb"></path><path d="M705 393L783 336L674 297Z" fill="#c2c9cf" stroke="#c2c9cf"></path><path d="M793 535L705 393L671 502Z" fill="#dadada" stroke="#dadada"></path><path d="M776 381L783 336L705 393Z" fill="#bac4cc" stroke="#bac4cc"></path><path d="M611 600L662 600L671 502Z" fill="#dadada" stroke="#dadada"></path><path d="M783 336L784 203L700 218Z" fill="#c2c9cf" stroke="#c2c9cf"></path><path d="M0 476L67 600L100 495Z" fill="#cacfd3" stroke="#cacfd3"></path><path d="M815 0L718 0L722 100Z" fill="#c2c9cf" stroke="#c2c9cf"></path><path d="M722 100L718 0L579 0Z" fill="#d6d7d8" stroke="#d6d7d8"></path><path d="M0 476L0 600L67 600Z" fill="#c6ccd1" stroke="#c6ccd1"></path><path d="M134 0L0 0L122 62Z" fill="#d2d4d6" stroke="#d2d4d6"></path><path d="M662 600L793 535L671 502Z" fill="#c2c9cf" stroke="#c2c9cf"></path><path d="M900 436L900 300L783 336Z" fill="#d6d7d8" stroke="#d6d7d8"></path><path d="M900 234L831 102L784 203Z" fill="#c6ccd1" stroke="#c6ccd1"></path><path d="M784 203L831 102L722 100Z" fill="#d6d7d8" stroke="#d6d7d8"></path><path d="M900 300L784 203L783 336Z" fill="#b5c2cb" stroke="#b5c2cb"></path><path d="M900 436L783 336L776 381Z" fill="#ced2d5" stroke="#ced2d5"></path><path d="M900 300L900 234L784 203Z" fill="#cacfd3" stroke="#cacfd3"></path><path d="M900 65L815 0L831 102Z" fill="#bac4cc" stroke="#bac4cc"></path><path d="M831 102L815 0L722 100Z" fill="#bec7ce" stroke="#bec7ce"></path><path d="M793 535L900 436L776 381Z" fill="#d2d4d6" stroke="#d2d4d6"></path><path d="M662 600L838 600L793 535Z" fill="#bec7ce" stroke="#bec7ce"></path><path d="M793 535L900 509L900 436Z" fill="#d2d4d6" stroke="#d2d4d6"></path><path d="M838 600L900 509L793 535Z" fill="#bec7ce" stroke="#bec7ce"></path><path d="M900 234L900 65L831 102Z" fill="#c6ccd1" stroke="#c6ccd1"></path><path d="M838 600L900 600L900 509Z" fill="#b5c2cb" stroke="#b5c2cb"></path><path d="M900 65L900 0L815 0Z" fill="#b5c2cb" stroke="#b5c2cb"></path></g></svg>