<svg id="visual" viewBox="0 0 900 600" width="900" height="600" xmlns="http://www.w3.org/2000/svg" xmlns:xlink="http://www.w3.org/1999/xlink" version="1.1"><path d="M0 277L13.7 250C27.3 223 54.7 169 82 162C109.3 155 136.7 195 163.8 205C191 215 218 195 245.2 200C272.3 205 299.7 235 327 239C354.3 243 381.7 221 409 222C436.3 223 463.7 247 491 240C518.3 233 545.7 195 573 187C600.3 179 627.7 201 654.8 190C682 179 709 135 736.2 117C763.3 99 790.7 107 818 127C845.3 147 872.7 179 886.3 195L900 211L900 0L886.3 0C872.7 0 845.3 0 818 0C790.7 0 763.3 0 736.2 0C709 0 682 0 654.8 0C627.7 0 600.3 0 573 0C545.7 0 518.3 0 491 0C463.7 0 436.3 0 409 0C381.7 0 354.3 0 327 0C299.7 0 272.3 0 245.2 0C218 0 191 0 163.8 0C136.7 0 109.3 0 82 0C54.7 0 27.3 0 13.7 0L0 0Z" fill="#ffcca5"></path><path d="M0 361L13.7 343C27.3 325 54.7 289 82 293C109.3 297 136.7 341 163.8 355C191 369 218 353 245.2 347C272.3 341 299.7 345 327 340C354.3 335 381.7 321 409 321C436.3 321 463.7 335 491 330C518.3 325 545.7 301 573 293C600.3 285 627.7 293 654.8 287C682 281 709 261 736.2 239C763.3 217 790.7 193 818 213C845.3 233 872.7 297 886.3 329L900 361L900 209L886.3 193C872.7 177 845.3 145 818 125C790.7 105 763.3 97 736.2 115C709 133 682 177 654.8 188C627.7 199 600.3 177 573 185C545.7 193 518.3 231 491 238C463.7 245 436.3 221 409 220C381.7 219 354.3 241 327 237C299.7 233 272.3 203 245.2 198C218 193 191 213 163.8 203C136.7 193 109.3 153 82 160C54.7 167 27.3 221 13.7 248L0 275Z" fill="#fec190"></path><path d="M0 451L13.7 444C27.3 437 54.7 423 82 427C109.3 431 136.7 453 163.8 468C191 483 218 491 245.2 489C272.3 487 299.7 475 327 470C354.3 465 381.7 467 409 465C436.3 463 463.7 457 491 448C518.3 439 545.7 427 573 416C600.3 405 627.7 395 654.8 402C682 409 709 433 736.2 444C763.3 455 790.7 453 818 453C845.3 453 872.7 455 886.3 456L900 457L900 359L886.3 327C872.7 295 845.3 231 818 211C790.7 191 763.3 215 736.2 237C709 259 682 279 654.8 285C627.7 291 600.3 283 573 291C545.7 299 518.3 323 491 328C463.7 333 436.3 319 409 319C381.7 319 354.3 333 327 338C299.7 343 272.3 339 245.2 345C218 351 191 367 163.8 353C136.7 339 109.3 295 82 291C54.7 287 27.3 323 13.7 341L0 359Z" fill="#fdb67c"></path><path d="M0 487L13.7 487C27.3 487 54.7 487 82 499C109.3 511 136.7 535 163.8 546C191 557 218 555 245.2 550C272.3 545 299.7 537 327 529C354.3 521 381.7 513 409 507C436.3 501 463.7 497 491 495C518.3 493 545.7 493 573 491C600.3 489 627.7 485 654.8 485C682 485 709 489 736.2 497C763.3 505 790.7 517 818 526C845.3 535 872.7 541 886.3 544L900 547L900 455L886.3 454C872.7 453 845.3 451 818 451C790.7 451 763.3 453 736.2 442C709 431 682 407 654.8 400C627.7 393 600.3 403 573 414C545.7 425 518.3 437 491 446C463.7 455 436.3 461 409 463C381.7 465 354.3 463 327 468C299.7 473 272.3 485 245.2 487C218 489 191 481 163.8 466C136.7 451 109.3 429 82 425C54.7 421 27.3 435 13.7 442L0 449Z" fill="#f2a669"></path><path d="M0 601L13.7 601C27.3 601 54.7 601 82 601C109.3 601 136.7 601 163.8 601C191 601 218 601 245.2 601C272.3 601 299.7 601 327 601C354.3 601 381.7 601 409 601C436.3 601 463.7 601 491 601C518.3 601 545.7 601 573 601C600.3 601 627.7 601 654.8 601C682 601 709 601 736.2 601C763.3 601 790.7 601 818 601C845.3 601 872.7 601 886.3 601L900 601L900 545L886.3 542C872.7 539 845.3 533 818 524C790.7 515 763.3 503 736.2 495C709 487 682 483 654.8 483C627.7 483 600.3 487 573 489C545.7 491 518.3 491 491 493C463.7 495 436.3 499 409 505C381.7 511 354.3 519 327 527C299.7 535 272.3 543 245.2 548C218 553 191 555 163.8 544C136.7 533 109.3 509 82 497C54.7 485 27.3 485 13.7 485L0 485Z" fill="#e79656"></path></svg>